<svg version="1.2" xmlns="http://www.w3.org/2000/svg" viewBox="0 0 512 512" width="512" height="512">
	<style>
		.s0 { fill: #000000 } 
	</style>
	<g>
		<path class="s0" d="m291.24 172.54l-35.63 35.64-35.14-35.14c-19.28-19.28-35.33-35.03-35.74-35.03-0.4 0-0.91 12.11-1.01 26.96l-0.3 27.05-37.36 0.31-37.35 0.2 31.8 31.8 31.8 31.8-31.09 31.1c-17.06 17.06-31 31.3-31 31.7 0 0.4 16.46 0.91 36.65 1.01l36.55 0.3 0.3 26.96c0.1 14.94 0.61 27.06 1.11 27.06 0.51 0 16.26-15.65 35.14-34.84 18.77-19.18 34.52-34.83 35.13-34.83 0.51 0 17.06 16.06 36.55 35.54l35.64 35.64v-28.07-27.96h36.85c20.29 0 36.85-0.31 36.85-0.81 0-0.4-13.83-14.54-30.8-31.5-16.96-16.96-30.79-31.1-30.79-31.6 0-0.4 14.14-14.84 31.4-32l31.4-31.3h-37.46-37.45l-0.21-27.77-0.3-27.76zm-67.54 27.36l20.09 20.09-17.97 17.97-17.97 17.97 17.87 17.77 17.87 17.87-20.9 21.71c-11.51 11.91-21.3 21.6-21.81 21.6-0.4 0-0.8-7.06-0.8-15.65v-15.64h-25.24c-13.84 0-25.24-0.31-25.24-0.71 0-0.51 10.29-11.11 22.91-23.73l23.02-23.02-23.02-23.01c-12.62-12.62-22.91-23.22-22.91-23.63 0-0.4 11.2-0.91 25.03-1.01l24.94-0.3 0.3-15.55c0.21-14.44 0.41-15.34 2.02-14.13 0.91 0.8 10.7 10.4 21.81 21.4zm87.43-6.87v15.65l25.54 0.21 25.45 0.3-23.43 23.32-23.32 23.32 23.32 23.63 23.43 23.62-25.45 0.3-25.54 0.21v15.64c0 8.59-0.3 15.65-0.81 15.65-1.01 0-42.6-41.69-42.6-42.8 0-0.51 7.77-8.58 17.16-18.08 9.49-9.38 17.16-17.56 17.16-18.17 0-0.7-7.87-8.98-17.36-18.57l-17.47-17.47 21.21-21.2c11.61-11.71 21.5-21.2 21.9-21.2 0.51 0 0.81 7.06 0.81 15.64zm-43.92 50.38c6.36 6.26 11.61 11.92 11.61 12.32 0 0.51-5.14 6.16-11.51 12.42-10.5 10.5-11.71 11.41-13.42 10.1-4.55-3.64-21.51-21.31-21.51-22.32 0-1.11 22.01-24.03 23.02-24.03 0.1 0 5.45 5.15 11.81 11.51z"/>
	</g>
</svg>